<?xml version="1.0" standalone="no"?>
<!DOCTYPE svg PUBLIC "-//W3C//DTD SVG 20010904//EN"
 "http://www.w3.org/TR/2001/REC-SVG-20010904/DTD/svg10.dtd">
<svg version="1.0" xmlns="http://www.w3.org/2000/svg"
 width="500.000000pt" height="500.000000pt" viewBox="0 0 500.000000 500.000000"
 preserveAspectRatio="xMidYMid meet">

<g transform="translate(0.000000,500.000000) scale(0.100000,-0.100000)"
fill="#000000" stroke="none">
<path d="M2355 4979 c-119 -6 -171 -22 -218 -67 -28 -27 -58 -107 -59 -162 -1
-37 36 -80 69 -80 31 0 29 -4 -14 -44 -49 -44 -53 -99 -10 -144 l28 -29 -11
-119 c-5 -65 -17 -198 -25 -294 -45 -508 -81 -832 -102 -895 -9 -28 -36 -73
-62 -103 -67 -79 -138 -180 -167 -238 -61 -124 -57 -51 -60 -1329 l-2 -1170
25 -53 c16 -35 40 -64 67 -84 69 -50 168 -96 236 -108 36 -6 103 -18 149 -26
113 -21 422 -20 541 1 47 9 112 20 144 26 114 20 263 115 303 193 15 28 16
149 15 1196 -1 641 -5 1185 -8 1210 -7 51 -68 188 -112 252 -16 24 -56 73 -88
109 -90 102 -92 108 -130 519 -8 96 -24 254 -34 350 -10 96 -26 261 -36 367
l-18 191 32 36 c45 52 43 88 -8 137 -22 21 -40 40 -40 42 0 3 16 8 35 11 57
11 70 63 40 163 -37 123 -157 159 -480 142z m249 -103 c72 -9 91 -16 107 -35
10 -13 19 -31 19 -41 0 -16 -4 -17 -30 -7 -22 8 -41 8 -74 -1 -36 -9 -51 -9
-78 2 -36 14 -139 13 -182 -4 -17 -6 -35 -6 -53 1 -16 6 -47 8 -70 4 -35 -5
-43 -3 -43 10 0 28 46 65 82 66 18 0 65 6 103 14 39 7 84 11 100 8 17 -3 70
-10 119 -17z m-269 -189 c17 0 58 4 91 8 39 5 80 3 112 -4 35 -9 61 -10 86 -3
39 11 37 15 40 -62 1 -17 11 -36 25 -47 l24 -20 -23 -21 c-22 -20 -22 -26 -16
-114 3 -51 9 -108 13 -125 5 -29 4 -32 -13 -25 -62 26 -370 29 -416 5 -16 -9
-17 -5 -13 33 2 24 7 80 10 125 5 77 4 83 -17 99 l-23 17 28 29 c21 21 27 35
23 51 -9 36 4 69 23 61 9 -4 30 -7 46 -7z m230 -947 l172 0 11 -102 c6 -57 14
-139 17 -183 23 -298 42 -360 149 -487 73 -86 148 -199 163 -248 6 -19 14 -61
18 -92 l6 -58 -35 0 c-67 0 -231 28 -351 60 -78 20 -245 41 -295 35 -94 -9
-126 -16 -275 -54 -63 -16 -231 -41 -275 -41 -39 0 -40 1 -40 34 0 47 48 186
74 216 12 14 34 43 49 66 15 22 48 63 72 90 78 85 124 214 125 344 0 30 7 100
15 154 8 55 15 131 15 170 0 39 4 76 8 83 9 15 70 22 146 17 32 -2 136 -4 231
-4z m15 -1186 c58 -9 130 -24 160 -32 53 -15 54 -16 25 -23 -42 -9 -541 -10
-590 0 l-40 8 42 12 c50 14 237 48 273 50 14 1 72 -6 130 -15z m514 -333 c4
-97 6 -358 5 -581 -1 -223 -2 -449 -2 -502 l1 -97 -52 -5 c-294 -30 -806 -35
-1051 -11 -82 8 -153 15 -157 15 -5 0 -8 305 -8 678 l0 679 629 0 629 0 6
-176z m-1186 -1291 c25 0 33 -3 26 -10 -13 -13 -94 -2 -94 12 0 6 7 7 16 4 9
-3 32 -6 52 -6z m1182 1 c0 -8 -47 -21 -76 -21 -28 0 -13 19 19 23 17 2 38 5
45 5 6 1 12 -2 12 -7z m-1083 -17 c-3 -3 -12 -4 -19 -1 -8 3 -5 6 6 6 11 1 17
-2 13 -5z m717 -4 c43 0 57 -3 46 -10 -20 -13 -577 -13 -585 0 -8 12 137 18
329 14 82 -2 177 -4 210 -4z m141 0 c-3 -5 -14 -10 -23 -10 -15 0 -15 2 -2 10
20 13 33 13 25 0z m103 3 c-10 -2 -26 -2 -35 0 -10 3 -2 5 17 5 19 0 27 -2 18
-5z m-933 -96 c212 -17 730 -15 917 3 76 8 140 12 142 9 8 -8 13 -483 5 -517
-12 -55 -54 -87 -184 -143 -29 -12 -122 -28 -265 -44 -248 -28 -554 3 -695 71
-38 19 -77 40 -86 46 -37 30 -40 53 -40 321 0 144 0 265 1 269 0 3 8 4 18 2 9
-2 94 -10 187 -17z"/>
<path d="M2616 3658 c-15 -8 -16 -12 -5 -19 21 -13 71 -11 67 3 -6 18 -42 27
-62 16z"/>
<path d="M2587 3594 c-14 -15 6 -24 54 -24 27 0 49 5 49 10 0 12 5 10 -50 16
-25 3 -49 2 -53 -2z"/>
<path d="M2570 3529 c0 -10 39 -19 83 -19 36 0 54 19 20 21 -62 5 -103 4 -103
-2z"/>
<path d="M2598 3462 c-82 -5 -49 -32 39 -32 45 0 73 8 73 20 0 10 -53 16 -112
12z"/>
<path d="M2576 3391 c-13 -21 5 -31 57 -31 55 0 88 12 68 24 -22 14 -118 19
-125 7z"/>
<path d="M2607 3311 c-17 -6 -16 -8 8 -19 53 -24 145 -7 104 19 -17 10 -86 11
-112 0z"/>
<path d="M2635 3251 c-51 -10 -33 -26 33 -29 36 -2 62 1 62 7 0 20 -50 31 -95
22z"/>
<path d="M2594 3179 c-11 -19 18 -29 82 -29 58 0 95 16 77 33 -11 12 -151 8
-159 -4z"/>
<path d="M2615 3101 c-10 -18 33 -31 99 -31 49 0 66 3 66 14 0 22 -152 38
-165 17z"/>
<path d="M2665 3037 c-18 -14 -18 -15 3 -26 30 -16 127 -14 141 3 16 19 8 22
-64 30 -44 5 -66 3 -80 -7z"/>
<path d="M2735 2971 c-9 -15 29 -31 74 -31 45 0 61 14 32 29 -25 14 -98 14
-106 2z"/>
<path d="M2775 2901 c-10 -16 31 -31 84 -31 37 0 51 4 51 14 0 7 -10 16 -22
20 -35 9 -106 7 -113 -3z"/>
<path d="M2812 2818 c5 -16 46 -25 111 -27 41 -1 47 2 47 19 0 18 -7 20 -81
20 -60 0 -80 -3 -77 -12z"/>
<path d="M2861 2766 c-15 -18 -8 -22 56 -31 59 -8 93 0 93 21 0 10 -14 14 -54
14 -30 0 -61 2 -69 5 -7 3 -19 -1 -26 -9z"/>
<path d="M2420 2160 c-121 -13 -210 -49 -303 -119 -123 -93 -214 -335 -178
-476 66 -261 294 -421 571 -402 234 16 445 200 481 419 27 163 -20 305 -138
420 -136 132 -262 178 -433 158z m228 -135 c254 -116 321 -425 136 -625 -98
-105 -206 -148 -345 -136 -181 15 -311 102 -370 246 -17 43 -22 75 -21 145 0
217 120 354 345 395 83 14 192 4 255 -25z"/>
<path d="M2823 743 c-13 -2 -23 -11 -23 -19 0 -13 18 -15 106 -13 122 2 144 6
144 25 0 11 -21 14 -102 13 -57 -1 -113 -4 -125 -6z"/>
<path d="M2877 672 c-14 -3 -16 -7 -6 -18 14 -17 154 -20 164 -3 4 6 5 12 4
13 -7 6 -143 12 -162 8z"/>
<path d="M2903 610 c-22 -9 -32 -29 -15 -31 88 -13 164 3 147 30 -8 13 -101
13 -132 1z"/>
<path d="M2904 529 c-12 -19 19 -30 73 -26 58 4 75 13 53 27 -21 13 -117 12
-126 -1z"/>
<path d="M2901 451 c-14 -9 -6 -12 81 -27 44 -7 78 2 78 22 0 11 -16 14 -72
14 -40 0 -79 -4 -87 -9z"/>
<path d="M2928 387 c-27 -6 -48 -14 -48 -18 0 -13 59 -21 103 -14 64 10 77 15
77 31 0 17 -58 17 -132 1z"/>
<path d="M3015 325 c-5 -2 -45 -9 -87 -16 -106 -18 -102 -40 5 -38 62 1 122
20 122 40 0 14 -20 21 -40 14z"/>
</g>
</svg>
