<svg id="svg" version="1.1" xmlns="http://www.w3.org/2000/svg" xmlns:xlink="http://www.w3.org/1999/xlink" width="400" height="400" viewBox="0, 0, 400,400"><g id="svgg"><path id="path0" d="M191.600 194.815 C 178.674 196.563,170.908 198.557,171.745 199.911 C 172.726 201.498,221.490 201.443,223.079 199.854 C 224.075 198.859,217.041 196.895,207.800 195.589 C 206.040 195.340,203.610 194.986,202.400 194.802 C 199.755 194.400,194.624 194.406,191.600 194.815 M195.000 235.182 C 194.560 235.381,193.501 235.556,192.646 235.572 C 191.792 235.587,190.352 235.793,189.446 236.030 C 188.541 236.266,187.080 236.643,186.200 236.867 C 181.516 238.058,174.135 242.192,171.578 245.056 C 158.444 259.765,160.986 283.789,176.701 293.467 C 200.238 307.961,228.892 295.141,231.387 269.000 C 231.660 266.140,230.760 258.338,230.054 257.443 C 229.862 257.200,229.473 256.280,229.191 255.400 C 227.573 250.356,222.833 244.270,217.992 241.022 C 211.117 236.410,199.057 233.346,195.000 235.182 M146.630 324.227 C 144.651 326.206,146.355 327.063,153.400 327.633 C 155.820 327.829,159.870 328.195,162.400 328.446 C 168.383 329.039,226.256 329.041,233.000 328.447 C 235.640 328.215,239.690 327.869,242.000 327.678 C 246.863 327.276,248.400 326.777,248.400 325.600 C 248.400 324.046,245.207 323.945,236.800 325.234 C 233.251 325.779,167.041 326.374,163.600 325.892 C 160.997 325.528,155.788 324.907,151.600 324.461 C 149.950 324.286,148.308 324.010,147.952 323.848 C 147.551 323.666,147.046 323.811,146.630 324.227 " stroke="none" fill="#f5f5f5" fill-rule="evenodd"></path><path id="path1" d="M180.200 0.800 C 180.064 1.020,179.434 1.200,178.800 1.200 C 178.166 1.200,177.536 1.380,177.400 1.600 C 177.264 1.820,176.741 2.000,176.238 2.000 C 175.155 2.000,173.086 2.973,172.393 3.808 C 172.123 4.134,171.673 4.400,171.392 4.400 C 170.643 4.400,166.800 8.814,166.800 9.675 C 166.800 10.080,166.620 10.768,166.400 11.205 C 166.180 11.642,165.820 12.358,165.600 12.795 C 165.380 13.232,165.200 14.661,165.200 15.971 C 165.200 17.281,165.020 18.464,164.800 18.600 C 164.580 18.736,164.400 19.557,164.400 20.424 C 164.400 21.291,164.580 22.000,164.800 22.000 C 165.020 22.000,165.200 22.503,165.200 23.117 C 165.200 24.294,167.829 27.215,169.380 27.761 C 170.085 28.010,170.009 28.178,168.578 29.518 C 167.708 30.333,166.751 31.540,166.451 32.200 C 166.152 32.860,165.748 33.713,165.553 34.095 C 165.074 35.036,165.105 37.494,165.600 37.800 C 165.820 37.936,166.000 38.374,166.000 38.773 C 166.000 39.172,167.007 40.627,168.237 42.006 C 170.295 44.313,170.455 44.629,170.232 45.957 C 169.791 48.590,169.245 55.355,169.222 58.476 C 169.210 60.168,169.020 61.664,168.800 61.800 C 168.580 61.936,168.400 63.646,168.400 65.600 C 168.400 67.554,168.220 69.264,168.000 69.400 C 167.780 69.536,167.600 71.246,167.600 73.200 C 167.600 75.154,167.420 76.864,167.200 77.000 C 166.961 77.147,166.800 79.730,166.800 83.400 C 166.800 87.070,166.639 89.653,166.400 89.800 C 166.180 89.936,166.000 91.376,166.000 93.000 C 166.000 94.624,165.820 96.064,165.600 96.200 C 165.363 96.346,165.200 98.796,165.200 102.200 C 165.200 105.604,165.037 108.054,164.800 108.200 C 164.580 108.336,164.400 109.866,164.400 111.600 C 164.400 113.334,164.220 114.864,164.000 115.000 C 163.780 115.136,163.600 116.486,163.600 118.000 C 163.600 119.514,163.420 120.864,163.200 121.000 C 162.964 121.146,162.800 123.530,162.800 126.800 C 162.800 130.070,162.636 132.454,162.400 132.600 C 162.180 132.736,162.000 134.266,162.000 136.000 C 162.000 137.734,161.820 139.264,161.600 139.400 C 161.380 139.536,161.200 140.719,161.200 142.029 C 161.200 143.339,161.020 144.768,160.800 145.205 C 160.580 145.642,160.220 146.358,160.000 146.795 C 159.780 147.232,159.600 147.931,159.600 148.349 C 159.600 149.672,158.554 151.211,154.221 156.259 C 151.899 158.963,150.000 161.361,150.000 161.588 C 150.000 161.815,149.820 162.000,149.600 162.000 C 149.380 162.000,149.200 162.227,149.200 162.504 C 149.200 162.782,148.561 163.727,147.781 164.604 C 145.650 167.000,144.576 168.430,143.578 170.200 C 142.725 171.715,142.294 172.561,140.400 176.438 C 139.960 177.339,139.600 178.599,139.600 179.238 C 139.600 179.877,139.420 180.400,139.200 180.400 C 138.980 180.400,138.800 180.940,138.800 181.600 C 138.800 182.260,138.620 182.800,138.400 182.800 C 138.180 182.800,138.000 183.329,138.000 183.976 C 138.000 184.623,137.820 185.264,137.600 185.400 C 137.377 185.538,137.200 187.396,137.200 189.600 C 137.200 191.804,137.023 193.662,136.800 193.800 C 136.249 194.141,136.249 254.259,136.800 254.600 C 137.054 254.757,137.200 259.730,137.200 268.200 C 137.200 276.670,137.054 281.643,136.800 281.800 C 136.276 282.124,136.276 289.876,136.800 290.200 C 137.344 290.536,137.344 307.600,136.800 307.600 C 136.248 307.600,136.248 357.459,136.800 357.800 C 137.334 358.130,137.334 369.470,136.800 369.800 C 136.580 369.936,136.400 371.477,136.400 373.224 C 136.400 375.075,136.567 376.400,136.800 376.400 C 137.020 376.400,137.200 376.935,137.200 377.588 C 137.200 378.241,137.588 379.456,138.062 380.288 C 138.535 381.120,139.300 382.517,139.762 383.393 C 140.704 385.185,142.931 387.600,143.640 387.600 C 143.896 387.600,144.401 387.940,144.761 388.355 C 145.572 389.291,147.286 390.283,152.356 392.754 C 153.762 393.439,155.112 394.004,155.356 394.009 C 155.600 394.014,156.250 394.370,156.800 394.800 C 157.429 395.292,158.432 395.586,159.500 395.591 C 160.435 395.596,161.200 395.780,161.200 396.000 C 161.200 396.220,161.819 396.400,162.576 396.400 C 163.333 396.400,164.064 396.580,164.200 396.800 C 164.336 397.020,165.236 397.200,166.200 397.200 C 167.164 397.200,168.064 397.380,168.200 397.600 C 168.336 397.820,170.046 398.000,172.000 398.000 C 173.954 398.000,175.664 398.180,175.800 398.400 C 175.936 398.620,176.656 398.800,177.400 398.800 C 178.144 398.800,178.864 398.980,179.000 399.200 C 179.340 399.750,215.600 399.750,215.600 399.200 C 215.600 398.980,216.320 398.800,217.200 398.800 C 218.080 398.800,218.800 398.634,218.800 398.430 C 218.800 398.227,220.195 397.963,221.900 397.842 C 227.833 397.424,230.202 397.130,230.580 396.766 C 230.789 396.565,231.363 396.400,231.856 396.400 C 232.349 396.400,232.864 396.220,233.000 396.000 C 233.136 395.780,233.940 395.600,234.786 395.600 C 235.632 395.600,237.106 395.214,238.062 394.743 C 239.018 394.272,240.250 393.687,240.800 393.444 C 241.350 393.200,241.890 392.911,242.000 392.801 C 242.476 392.323,244.039 391.600,244.595 391.600 C 244.928 391.600,245.200 391.462,245.200 391.294 C 245.200 391.126,245.912 390.680,246.783 390.303 C 250.331 388.766,257.200 381.339,257.200 379.039 C 257.200 378.494,257.380 377.936,257.600 377.800 C 257.855 377.643,258.000 372.337,258.000 363.200 C 258.000 354.063,258.145 348.757,258.400 348.600 C 258.629 348.459,258.800 346.404,258.800 343.800 C 258.800 341.196,258.629 339.141,258.400 339.000 C 257.860 338.666,257.860 323.334,258.400 323.000 C 258.922 322.678,258.922 316.522,258.400 316.200 C 258.136 316.037,258.000 294.796,258.000 253.776 C 258.000 212.592,257.865 191.600,257.600 191.600 C 257.361 191.600,257.200 190.065,257.200 187.795 C 257.200 185.702,257.041 183.677,256.847 183.295 C 256.652 182.913,256.271 182.060,256.000 181.400 C 255.729 180.740,255.348 179.887,255.153 179.505 C 254.959 179.123,254.793 178.583,254.784 178.305 C 254.775 178.027,254.235 177.177,253.584 176.415 C 252.933 175.653,252.396 174.753,252.391 174.415 C 252.386 174.077,252.030 173.350,251.600 172.800 C 251.170 172.250,250.814 171.580,250.809 171.312 C 250.804 171.044,250.412 170.144,249.937 169.312 C 249.463 168.480,248.878 167.438,248.637 166.996 C 248.397 166.554,247.705 165.547,247.100 164.758 C 246.495 163.970,246.000 163.195,246.000 163.037 C 246.000 162.878,245.540 162.265,244.977 161.674 C 239.220 155.629,237.200 153.382,237.200 153.020 C 237.200 152.785,236.840 152.368,236.400 152.093 C 235.946 151.809,235.600 151.160,235.600 150.591 C 235.600 150.040,235.441 149.277,235.247 148.895 C 234.011 146.465,233.713 145.011,233.344 139.600 C 233.232 137.950,232.973 136.429,232.770 136.220 C 232.566 136.011,232.400 134.357,232.400 132.544 C 232.400 130.731,232.247 129.153,232.061 129.038 C 231.875 128.923,231.597 126.024,231.444 122.596 C 231.291 119.168,230.994 115.909,230.783 115.355 C 230.572 114.801,230.400 113.314,230.400 112.050 C 230.400 110.650,230.171 109.450,229.813 108.976 C 229.370 108.391,229.222 106.952,229.213 103.124 C 229.205 100.185,229.032 97.943,228.800 97.800 C 228.580 97.664,228.400 96.314,228.400 94.800 C 228.400 93.286,228.220 91.936,228.000 91.800 C 227.780 91.664,227.600 90.224,227.600 88.600 C 227.600 86.976,227.420 85.536,227.200 85.400 C 226.961 85.253,226.800 82.670,226.800 79.000 C 226.800 75.330,226.639 72.747,226.400 72.600 C 226.180 72.464,226.000 70.923,226.000 69.176 C 226.000 67.325,225.833 66.000,225.600 66.000 C 225.350 66.000,225.200 63.541,225.200 59.424 C 225.200 55.471,225.040 52.749,224.800 52.600 C 223.696 51.918,224.345 43.973,225.600 42.800 C 226.260 42.183,226.804 41.526,226.809 41.340 C 226.814 41.153,227.170 40.550,227.600 40.000 C 228.218 39.210,228.382 38.370,228.382 36.000 C 228.382 33.630,228.218 32.790,227.600 32.000 C 227.170 31.450,226.814 30.785,226.809 30.523 C 226.804 30.260,226.485 29.810,226.100 29.523 C 224.285 28.167,224.301 27.777,226.217 26.791 C 228.845 25.439,229.295 24.236,229.073 19.140 C 228.838 13.754,228.531 12.214,227.153 9.505 C 226.959 9.123,226.800 8.590,226.800 8.321 C 226.800 6.694,220.089 2.000,217.762 2.000 C 217.013 2.000,216.400 1.820,216.400 1.600 C 216.400 1.380,215.961 1.200,215.424 1.200 C 214.887 1.200,214.336 1.020,214.200 0.800 C 213.861 0.252,180.539 0.252,180.200 0.800 M201.400 10.400 C 201.536 10.620,202.616 10.800,203.800 10.800 C 204.984 10.800,206.064 10.980,206.200 11.200 C 206.336 11.420,207.776 11.600,209.400 11.600 C 211.024 11.600,212.464 11.780,212.600 12.000 C 212.736 12.220,213.274 12.400,213.796 12.400 C 214.394 12.400,215.062 12.844,215.600 13.600 C 216.283 14.559,216.333 14.800,215.851 14.800 C 215.519 14.800,215.136 14.620,215.000 14.400 C 214.864 14.180,213.874 14.000,212.800 14.000 C 211.726 14.000,210.736 14.180,210.600 14.400 C 210.464 14.620,209.924 14.800,209.400 14.800 C 208.876 14.800,208.336 14.980,208.200 15.200 C 207.801 15.846,206.133 15.661,204.600 14.800 C 202.080 13.385,190.089 13.777,188.541 15.326 C 188.185 15.681,186.215 15.681,185.859 15.326 C 184.734 14.201,180.522 13.668,179.213 14.485 C 178.020 15.229,177.798 14.566,178.877 13.486 C 180.034 12.330,181.296 11.966,185.000 11.722 C 186.540 11.621,187.971 11.372,188.180 11.169 C 188.389 10.966,189.424 10.800,190.480 10.800 C 191.536 10.800,192.400 10.620,192.400 10.400 C 192.400 10.158,194.125 10.000,196.776 10.000 C 199.263 10.000,201.260 10.173,201.400 10.400 M201.773 26.242 C 202.858 26.549,204.242 26.800,204.849 26.800 C 205.456 26.800,206.072 26.992,206.217 27.227 C 206.362 27.462,206.778 27.535,207.140 27.390 C 207.503 27.244,208.655 26.898,209.700 26.621 L 211.600 26.117 211.600 28.997 C 211.600 31.871,212.196 33.801,213.391 34.793 C 213.885 35.202,213.855 35.389,213.183 36.110 C 212.297 37.062,211.944 54.471,212.800 55.000 C 213.020 55.136,213.200 55.543,213.200 55.904 C 213.200 56.414,213.093 56.453,212.720 56.080 C 212.407 55.767,210.760 55.600,207.981 55.600 C 204.875 55.600,203.375 55.426,202.437 54.959 C 200.840 54.162,191.967 54.273,191.140 55.100 C 190.796 55.444,189.163 55.600,185.920 55.600 L 181.200 55.600 181.200 52.224 C 181.200 50.367,181.380 48.736,181.600 48.600 C 182.496 48.046,182.088 37.545,181.130 36.526 L 180.261 35.600 181.130 34.674 C 181.609 34.165,182.000 33.456,182.000 33.098 C 182.000 32.740,182.180 32.336,182.400 32.200 C 182.620 32.064,182.800 31.254,182.800 30.400 C 182.800 29.546,182.620 28.736,182.400 28.600 C 182.180 28.464,182.000 28.081,182.000 27.748 C 182.000 26.921,183.078 25.879,183.398 26.397 C 183.731 26.935,189.441 26.913,191.203 26.367 C 194.799 25.252,198.132 25.213,201.773 26.242 M188.189 102.383 C 188.330 102.611,192.511 102.763,198.513 102.760 C 204.061 102.756,210.715 102.764,213.300 102.777 L 218.000 102.800 218.000 104.976 C 218.000 106.173,218.180 107.264,218.400 107.400 C 218.630 107.542,218.800 109.663,218.800 112.400 C 218.800 115.137,218.970 117.258,219.200 117.400 C 219.427 117.540,219.600 119.530,219.600 122.000 C 219.600 124.470,219.773 126.460,220.000 126.600 C 220.220 126.736,220.400 128.086,220.400 129.600 C 220.400 131.114,220.580 132.464,220.800 132.600 C 221.030 132.742,221.200 134.863,221.200 137.600 C 221.200 140.337,221.370 142.458,221.600 142.600 C 221.820 142.736,222.000 143.228,222.000 143.693 L 222.000 144.539 221.070 143.666 C 220.392 143.029,220.186 142.475,220.311 141.625 C 220.439 140.755,220.268 140.324,219.641 139.933 C 218.581 139.271,218.564 138.340,219.600 137.693 C 222.041 136.168,219.921 133.200,216.390 133.200 C 215.134 133.200,214.448 133.047,214.600 132.800 C 214.736 132.580,215.197 132.400,215.624 132.400 C 216.051 132.400,216.400 132.241,216.400 132.047 C 216.400 131.852,216.760 131.599,217.200 131.484 C 219.112 130.984,217.976 127.600,215.896 127.600 C 215.236 127.600,214.857 127.431,215.000 127.200 C 215.136 126.980,215.665 126.800,216.175 126.800 C 217.517 126.800,218.066 125.899,217.924 123.930 L 217.800 122.200 215.800 122.076 C 214.700 122.008,213.629 121.783,213.420 121.576 C 212.914 121.076,210.513 121.094,210.200 121.600 C 210.064 121.820,208.493 122.000,206.708 122.000 C 203.103 122.000,202.000 122.546,202.000 124.330 C 202.000 125.853,203.089 126.800,204.838 126.800 C 205.671 126.800,206.464 126.980,206.600 127.200 C 206.743 127.431,206.364 127.600,205.704 127.600 C 204.215 127.600,203.600 128.258,203.600 129.851 C 203.600 131.177,205.133 132.400,206.795 132.400 C 207.943 132.400,208.014 132.874,206.986 133.682 C 205.804 134.612,205.620 136.679,206.682 137.087 C 208.290 137.704,208.914 138.580,207.914 138.816 C 206.749 139.091,206.373 141.947,207.391 142.792 C 207.954 143.260,207.924 143.364,207.111 143.767 C 205.594 144.519,205.612 147.269,207.141 148.358 C 208.909 149.617,220.530 149.652,221.200 148.400 C 221.891 147.109,222.800 147.405,222.800 148.920 C 222.800 149.646,222.975 150.415,223.190 150.630 C 223.744 151.184,220.347 150.829,219.643 150.259 C 218.601 149.415,209.436 149.663,208.442 150.562 C 206.715 152.125,208.033 155.601,210.354 155.600 C 210.879 155.600,210.975 155.965,210.865 157.548 C 210.707 159.830,212.041 161.190,214.462 161.213 C 215.803 161.225,217.400 162.067,216.946 162.521 C 215.940 163.527,218.495 166.000,220.541 166.000 C 221.178 166.000,221.253 166.107,220.880 166.480 C 220.243 167.117,220.266 169.535,220.915 170.129 C 221.756 170.897,223.144 171.600,223.822 171.600 C 224.354 171.600,224.323 171.784,223.627 172.762 C 222.319 174.599,223.748 177.200,226.066 177.200 C 227.277 177.200,227.284 177.212,226.646 178.186 C 224.959 180.761,226.583 182.000,231.646 182.000 C 233.819 182.000,235.662 182.178,235.800 182.400 C 235.936 182.620,236.847 182.800,237.824 182.800 C 238.801 182.800,239.600 182.620,239.600 182.400 C 239.600 182.180,240.144 182.000,240.809 182.000 C 241.746 182.000,242.123 181.753,242.490 180.900 C 243.133 179.402,243.104 179.422,243.790 179.992 C 244.126 180.270,244.400 181.095,244.400 181.825 C 244.400 182.555,244.580 183.264,244.800 183.400 C 245.020 183.536,245.200 184.436,245.200 185.400 C 245.200 186.364,245.380 187.264,245.600 187.400 C 245.820 187.536,246.000 188.526,246.000 189.600 C 246.000 190.674,246.180 191.664,246.400 191.800 C 246.620 191.936,246.800 192.307,246.800 192.624 C 246.800 193.309,241.416 193.473,241.000 192.800 C 240.864 192.580,239.953 192.400,238.976 192.400 C 237.999 192.400,237.200 192.220,237.200 192.000 C 237.200 191.763,235.741 191.600,233.624 191.600 C 231.657 191.600,229.936 191.420,229.800 191.200 C 229.664 190.980,228.618 190.796,227.476 190.791 C 226.034 190.785,225.095 190.544,224.400 190.000 C 223.737 189.481,222.768 189.215,221.524 189.209 C 220.492 189.204,219.536 189.020,219.400 188.800 C 219.264 188.580,218.533 188.400,217.776 188.400 C 217.019 188.400,216.399 188.265,216.397 188.100 C 216.390 187.421,214.072 186.800,211.544 186.800 C 210.061 186.800,208.736 186.620,208.600 186.400 C 208.462 186.177,206.604 186.000,204.400 186.000 C 202.196 186.000,200.338 185.823,200.200 185.600 C 199.865 185.059,194.271 185.089,193.725 185.635 C 193.412 185.948,193.215 185.948,193.022 185.635 C 192.684 185.089,190.133 185.061,189.800 185.600 C 189.664 185.820,189.124 186.000,188.600 186.000 C 188.076 186.000,187.536 186.180,187.400 186.400 C 187.264 186.620,185.650 186.800,183.814 186.800 C 180.519 186.800,180.204 186.886,176.305 188.850 C 175.923 189.043,174.719 189.200,173.629 189.200 C 172.539 189.200,171.536 189.380,171.400 189.600 C 171.264 189.820,170.544 190.000,169.800 190.000 C 169.056 190.000,168.336 190.180,168.200 190.400 C 168.064 190.620,166.984 190.800,165.800 190.800 C 164.616 190.800,163.536 190.980,163.400 191.200 C 163.264 191.420,162.274 191.600,161.200 191.600 C 160.126 191.600,159.136 191.780,159.000 192.000 C 158.864 192.220,157.784 192.400,156.600 192.400 C 155.416 192.400,154.336 192.580,154.200 192.800 C 154.064 193.020,152.523 193.200,150.776 193.200 L 147.600 193.200 147.600 191.224 C 147.600 190.137,147.780 189.136,148.000 189.000 C 148.220 188.864,148.400 188.283,148.400 187.708 C 148.400 187.133,148.678 186.356,149.017 185.981 C 149.357 185.606,149.743 184.602,149.876 183.750 C 150.009 182.897,150.451 181.722,150.859 181.138 C 151.266 180.554,151.600 179.806,151.600 179.476 C 151.600 178.690,153.254 175.600,153.674 175.600 C 153.853 175.600,154.000 175.240,154.000 174.800 C 154.000 174.267,154.267 174.000,154.800 174.000 C 155.302 174.000,155.600 173.733,155.600 173.285 C 155.600 172.892,156.133 171.947,156.784 171.185 C 157.435 170.423,157.975 169.589,157.984 169.332 C 157.993 169.074,159.258 167.544,160.795 165.932 C 162.332 164.319,163.592 162.860,163.595 162.688 C 163.598 162.516,164.223 161.828,164.985 161.160 C 165.746 160.491,166.617 159.462,166.919 158.872 C 167.222 158.282,167.859 157.120,168.335 156.288 C 168.811 155.456,169.200 154.547,169.200 154.268 C 169.200 153.541,170.144 151.607,170.500 151.603 C 170.665 151.601,170.800 150.700,170.800 149.600 C 170.800 148.500,170.980 147.600,171.200 147.600 C 171.420 147.600,171.601 147.375,171.602 147.100 C 171.604 146.825,171.892 146.060,172.242 145.400 C 173.049 143.882,173.992 136.530,173.996 131.724 C 173.998 129.702,174.180 127.936,174.400 127.800 C 174.620 127.664,174.800 126.314,174.800 124.800 C 174.800 123.286,174.980 121.936,175.200 121.800 C 175.437 121.654,175.600 119.196,175.600 115.776 C 175.600 112.192,175.752 110.000,176.000 110.000 C 176.237 110.000,176.400 108.533,176.400 106.400 L 176.400 102.800 178.500 102.794 C 179.655 102.791,180.870 102.613,181.200 102.400 C 181.978 101.897,187.880 101.883,188.189 102.383 M208.400 105.553 C 208.400 105.748,208.040 106.001,207.600 106.116 C 206.240 106.471,206.467 109.476,207.900 110.095 L 209.000 110.570 207.511 110.708 C 205.214 110.922,203.627 113.260,205.003 114.403 C 205.531 114.840,205.480 115.029,204.603 115.906 C 203.523 116.986,203.293 118.453,204.100 119.108 C 205.577 120.307,212.932 121.236,215.500 120.548 C 216.526 120.273,216.834 116.994,215.920 116.080 C 215.547 115.707,215.547 115.600,215.920 115.600 C 216.743 115.600,216.545 111.321,215.700 110.847 C 215.033 110.473,215.033 110.441,215.700 110.184 C 217.538 109.476,216.036 106.000,213.892 106.000 C 213.317 106.000,212.736 105.820,212.600 105.600 C 212.295 105.107,208.400 105.064,208.400 105.553 M225.200 154.744 C 225.200 155.127,225.416 155.656,225.680 155.920 C 226.299 156.539,225.647 156.536,224.327 155.913 C 223.343 155.448,223.325 155.384,223.947 154.554 C 224.668 153.591,225.200 153.672,225.200 154.744 M231.028 162.672 C 232.223 164.032,233.200 165.245,233.200 165.369 C 233.200 165.492,233.711 166.090,234.335 166.697 C 235.999 168.314,238.482 172.173,237.968 172.344 C 237.727 172.424,237.330 172.290,237.085 172.045 C 236.840 171.800,236.024 171.600,235.271 171.600 C 234.129 171.600,233.981 171.505,234.377 171.028 C 235.961 169.119,233.850 166.095,230.886 166.029 C 229.714 166.003,229.617 165.916,229.986 165.226 C 230.861 163.591,229.913 161.200,228.390 161.200 C 227.288 161.200,226.558 160.266,226.733 159.077 L 226.913 157.851 227.885 159.025 C 228.420 159.671,229.834 161.312,231.028 162.672 M241.200 175.862 C 241.200 176.158,241.359 176.400,241.553 176.400 C 241.748 176.400,242.018 176.715,242.154 177.100 C 242.289 177.485,242.520 178.068,242.666 178.396 C 242.811 178.724,242.347 178.409,241.635 177.696 C 240.922 176.983,240.172 176.400,239.969 176.400 C 239.766 176.400,239.600 175.832,239.600 175.138 C 239.600 173.901,239.616 173.891,240.400 174.600 C 240.840 174.998,241.200 175.566,241.200 175.862 M202.400 194.802 C 203.610 194.986,206.040 195.340,207.800 195.589 C 217.041 196.895,224.075 198.859,223.079 199.854 C 221.490 201.443,172.726 201.498,171.745 199.911 C 170.908 198.557,178.674 196.563,191.600 194.815 C 194.624 194.406,199.755 194.400,202.400 194.802 M180.600 209.600 C 180.758 209.856,186.463 210.000,196.400 210.000 C 206.337 210.000,212.042 209.856,212.200 209.600 C 212.358 209.344,218.471 209.200,229.224 209.200 L 246.000 209.200 246.000 216.776 C 246.000 221.396,246.156 224.449,246.400 224.600 C 246.662 224.762,246.800 237.863,246.800 262.600 C 246.800 287.337,246.662 300.438,246.400 300.600 C 246.161 300.747,246.000 303.330,246.000 307.000 C 246.000 310.670,246.161 313.253,246.400 313.400 C 247.587 314.133,246.803 315.600,245.224 315.600 C 244.357 315.600,243.536 315.780,243.400 316.000 C 243.252 316.239,240.604 316.400,236.800 316.400 C 232.996 316.400,230.348 316.561,230.200 316.800 C 230.057 317.032,227.870 317.200,225.000 317.200 C 222.130 317.200,219.943 317.368,219.800 317.600 C 219.639 317.860,210.670 318.000,194.200 318.000 C 177.730 318.000,168.761 317.860,168.600 317.600 C 168.464 317.380,166.844 317.200,165.000 317.200 C 163.156 317.200,161.536 317.020,161.400 316.800 C 161.257 316.568,159.070 316.400,156.200 316.400 C 153.330 316.400,151.143 316.232,151.000 316.000 C 150.864 315.780,150.043 315.600,149.176 315.600 L 147.600 315.600 147.600 262.400 L 147.600 209.200 163.976 209.200 C 174.463 209.200,180.442 209.344,180.600 209.600 M197.800 225.600 C 197.658 225.830,195.537 226.000,192.800 226.000 C 190.063 226.000,187.942 226.170,187.800 226.400 C 187.664 226.620,187.023 226.800,186.376 226.800 C 185.729 226.800,185.200 226.980,185.200 227.200 C 185.200 227.420,184.470 227.600,183.578 227.600 C 182.588 227.600,181.068 228.047,179.678 228.748 C 175.105 231.051,173.915 231.600,173.462 231.616 C 173.208 231.625,172.377 232.165,171.615 232.816 C 170.853 233.467,169.949 234.000,169.606 234.000 C 168.987 234.000,162.800 239.933,162.800 240.526 C 162.800 240.695,162.440 241.220,162.000 241.692 C 161.560 242.164,161.200 242.887,161.200 243.297 C 161.200 243.708,160.672 244.609,160.026 245.300 C 159.380 245.991,158.686 246.926,158.483 247.378 C 158.280 247.830,157.728 248.982,157.257 249.938 C 156.786 250.894,156.400 251.901,156.400 252.176 C 156.400 252.452,156.088 253.290,155.707 254.039 C 154.654 256.105,154.013 258.081,154.006 259.276 C 154.003 259.868,153.820 260.464,153.600 260.600 C 153.380 260.736,153.200 261.456,153.200 262.200 C 153.200 262.944,153.020 263.664,152.800 263.800 C 152.575 263.939,152.400 265.863,152.400 268.200 C 152.400 270.537,152.575 272.461,152.800 272.600 C 153.020 272.736,153.200 273.456,153.200 274.200 C 153.200 274.944,153.380 275.664,153.600 275.800 C 153.820 275.936,154.003 276.442,154.006 276.924 C 154.014 278.078,154.826 280.370,155.700 281.704 C 156.085 282.291,156.400 283.037,156.400 283.361 C 156.400 284.148,158.731 288.444,159.569 289.200 C 159.934 289.530,160.495 290.340,160.814 291.000 C 161.133 291.660,161.711 292.491,162.097 292.847 C 162.484 293.203,162.800 293.664,162.800 293.872 C 162.800 294.765,168.242 299.427,171.300 301.153 C 172.125 301.619,173.435 302.360,174.212 302.800 C 174.989 303.240,175.844 303.604,176.112 303.609 C 176.380 303.614,177.050 303.970,177.600 304.400 C 178.150 304.830,178.910 305.186,179.288 305.191 C 179.666 305.196,180.617 305.560,181.400 306.000 C 182.183 306.440,183.168 306.800,183.589 306.800 C 184.009 306.800,184.464 306.980,184.600 307.200 C 184.736 307.420,185.996 307.600,187.400 307.600 C 188.804 307.600,190.064 307.780,190.200 308.000 C 190.349 308.241,193.130 308.400,197.200 308.400 C 201.270 308.400,204.051 308.241,204.200 308.000 C 204.336 307.780,205.506 307.600,206.800 307.600 C 208.094 307.600,209.264 307.420,209.400 307.200 C 209.536 306.980,210.087 306.800,210.624 306.800 C 211.161 306.800,211.600 306.620,211.600 306.400 C 211.600 306.180,211.949 306.000,212.376 306.000 C 212.803 306.000,213.264 305.820,213.400 305.600 C 213.536 305.380,214.087 305.200,214.624 305.200 C 215.161 305.200,215.600 305.020,215.600 304.800 C 215.600 304.580,216.005 304.387,216.500 304.371 C 217.486 304.339,217.797 304.157,223.142 300.490 C 225.154 299.109,226.800 297.804,226.800 297.590 C 226.800 297.375,227.083 297.200,227.429 297.200 C 228.048 297.200,229.200 296.294,229.200 295.807 C 229.200 295.670,230.280 294.558,231.600 293.336 C 232.920 292.114,234.000 290.863,234.000 290.557 C 234.000 290.251,234.135 289.999,234.300 289.997 C 234.611 289.994,235.600 288.097,235.600 287.504 C 235.600 287.318,235.931 286.811,236.336 286.377 C 236.741 285.942,237.255 285.185,237.479 284.693 C 237.703 284.202,238.272 283.018,238.743 282.062 C 239.266 281.001,239.600 279.560,239.600 278.362 C 239.600 277.283,239.780 276.400,240.000 276.400 C 240.220 276.400,240.400 275.691,240.400 274.824 C 240.400 273.957,240.580 273.136,240.800 273.000 C 241.037 272.854,241.200 270.396,241.200 266.976 C 241.200 263.392,241.048 261.200,240.800 261.200 C 240.580 261.200,240.400 260.311,240.400 259.224 C 240.400 258.137,240.220 257.136,240.000 257.000 C 239.780 256.864,239.596 255.908,239.591 254.876 C 239.585 253.632,239.319 252.663,238.800 252.000 C 238.370 251.450,238.014 250.792,238.009 250.538 C 237.996 249.843,236.300 246.800,235.926 246.800 C 235.747 246.800,235.600 246.377,235.600 245.860 C 235.600 244.915,225.416 234.000,224.535 234.000 C 224.317 234.000,223.720 233.554,223.208 233.008 C 222.696 232.463,221.089 231.411,219.638 230.672 C 218.187 229.932,216.190 228.912,215.200 228.406 C 214.210 227.900,212.950 227.311,212.400 227.097 C 211.850 226.882,211.087 226.548,210.705 226.353 C 210.323 226.159,208.759 226.000,207.229 226.000 C 205.699 226.000,204.336 225.820,204.200 225.600 C 204.064 225.380,202.624 225.200,201.000 225.200 C 199.376 225.200,197.936 225.380,197.800 225.600 M206.400 235.785 C 210.062 236.623,214.266 238.523,217.992 241.022 C 222.833 244.270,227.573 250.356,229.191 255.400 C 229.473 256.280,229.862 257.200,230.054 257.443 C 230.760 258.338,231.660 266.140,231.387 269.000 C 228.892 295.141,200.238 307.961,176.701 293.467 C 160.986 283.789,158.444 259.765,171.578 245.056 C 174.135 242.192,181.516 238.058,186.200 236.867 C 187.080 236.643,188.541 236.266,189.446 236.030 C 190.352 235.793,191.792 235.587,192.646 235.572 C 193.501 235.556,194.560 235.381,195.000 235.182 C 196.193 234.642,202.977 235.001,206.400 235.785 M151.600 324.461 C 155.788 324.907,160.997 325.528,163.600 325.892 C 167.041 326.374,233.251 325.779,236.800 325.234 C 245.207 323.945,248.400 324.046,248.400 325.600 C 248.400 326.777,246.863 327.276,242.000 327.678 C 239.690 327.869,235.640 328.215,233.000 328.447 C 226.256 329.041,168.383 329.039,162.400 328.446 C 159.870 328.195,155.820 327.829,153.400 327.633 C 147.653 327.168,146.233 326.800,146.079 325.735 C 145.920 324.644,147.096 323.460,147.952 323.848 C 148.308 324.010,149.950 324.286,151.600 324.461 M153.800 335.200 C 153.939 335.425,155.863 335.600,158.200 335.600 C 160.537 335.600,162.461 335.775,162.600 336.000 C 162.741 336.229,164.796 336.400,167.400 336.400 C 170.004 336.400,172.059 336.571,172.200 336.800 C 172.342 337.031,174.471 337.200,177.224 337.200 C 180.141 337.200,182.000 337.044,182.000 336.800 C 182.000 336.545,185.259 336.400,190.976 336.400 C 196.529 336.400,200.047 336.553,200.200 336.800 C 200.527 337.329,216.400 337.345,216.400 336.815 C 216.400 336.588,219.791 336.351,224.700 336.236 C 234.847 335.998,239.600 335.658,239.600 335.170 C 239.600 334.966,241.220 334.800,243.200 334.800 L 246.800 334.800 246.779 348.900 C 246.760 361.830,246.706 362.925,246.130 362.100 C 245.619 361.367,245.125 361.200,243.471 361.200 C 241.418 361.200,241.229 360.598,243.200 360.334 C 244.785 360.122,244.899 357.087,243.351 356.332 C 242.057 355.701,241.639 354.800,242.641 354.800 C 244.444 354.800,245.954 351.714,244.743 350.503 C 244.491 350.251,244.266 349.000,244.243 347.723 L 244.200 345.400 241.400 345.171 C 238.581 344.940,238.559 344.832,241.282 344.583 C 246.049 344.147,247.734 340.200,243.881 338.495 C 242.491 337.880,229.373 337.796,229.000 338.400 C 228.864 338.620,228.234 338.800,227.600 338.800 C 226.966 338.800,226.336 338.980,226.200 339.200 C 226.064 339.420,225.393 339.600,224.708 339.600 C 222.081 339.600,221.030 342.379,223.054 343.971 C 223.634 344.427,224.579 344.802,225.154 344.805 C 227.381 344.817,227.989 345.187,227.509 346.240 C 226.995 347.368,227.635 349.200,228.542 349.200 C 229.364 349.200,230.352 350.479,229.700 350.698 C 228.624 351.061,229.118 353.860,230.457 354.987 C 231.401 355.781,231.601 356.159,231.257 356.503 C 229.506 358.254,231.531 361.200,234.485 361.200 C 235.158 361.200,235.543 361.368,235.400 361.600 C 235.264 361.820,234.195 362.000,233.025 362.000 C 229.975 362.000,228.328 365.549,231.200 365.934 C 231.750 366.007,232.371 366.232,232.580 366.434 C 232.789 366.635,233.869 366.814,234.980 366.832 C 237.602 366.873,236.938 367.127,233.234 367.501 C 230.027 367.825,228.480 369.290,229.048 371.464 C 229.345 372.600,234.271 373.836,237.006 373.461 C 238.174 373.301,238.752 373.353,238.597 373.605 C 238.463 373.822,236.833 374.000,234.976 374.000 C 232.992 374.000,231.600 374.165,231.600 374.400 C 231.600 374.620,230.669 374.800,229.531 374.800 C 226.370 374.800,224.885 376.905,226.662 378.869 C 227.716 380.034,240.530 379.963,242.635 378.780 C 244.443 377.765,245.026 378.185,243.421 379.347 C 242.773 379.816,241.852 380.605,241.375 381.100 C 240.898 381.595,240.141 382.000,239.692 382.000 C 239.243 382.000,238.184 382.336,237.338 382.748 C 236.492 383.159,235.080 383.726,234.200 384.007 C 233.320 384.289,232.309 384.852,231.953 385.259 C 231.483 385.798,230.752 386.000,229.277 386.000 C 228.160 386.000,227.136 386.180,227.000 386.400 C 226.864 386.620,225.964 386.800,225.000 386.800 C 224.036 386.800,223.136 386.980,223.000 387.200 C 222.857 387.432,220.670 387.600,217.800 387.600 C 214.930 387.600,212.743 387.768,212.600 388.000 C 212.462 388.223,210.604 388.400,208.400 388.400 C 206.196 388.400,204.338 388.577,204.200 388.800 C 204.064 389.020,202.894 389.200,201.600 389.200 C 200.306 389.200,199.136 389.380,199.000 389.600 C 198.864 389.820,197.784 390.000,196.600 390.000 C 195.416 390.000,194.336 389.820,194.200 389.600 C 194.064 389.380,193.254 389.200,192.400 389.200 C 191.546 389.200,190.736 389.020,190.600 388.800 C 190.457 388.568,188.270 388.400,185.400 388.400 C 182.530 388.400,180.343 388.232,180.200 388.000 C 180.058 387.771,177.996 387.600,175.376 387.600 C 172.592 387.600,170.800 387.443,170.800 387.200 C 170.800 386.980,170.181 386.800,169.424 386.800 C 168.667 386.800,167.936 386.620,167.800 386.400 C 167.664 386.180,166.618 385.996,165.476 385.991 C 164.034 385.985,163.095 385.744,162.400 385.200 C 161.850 384.770,161.096 384.414,160.724 384.409 C 160.352 384.404,159.936 384.220,159.800 384.000 C 159.664 383.780,159.051 383.600,158.438 383.600 C 157.825 383.600,156.998 383.240,156.600 382.800 C 156.202 382.360,155.455 382.000,154.941 382.000 C 154.427 382.000,153.782 381.640,153.507 381.200 C 153.232 380.760,152.803 380.400,152.553 380.400 C 152.303 380.400,151.871 380.127,151.594 379.793 C 151.317 379.459,150.530 378.918,149.845 378.590 C 147.587 377.512,147.600 377.643,147.600 355.320 L 147.600 334.800 150.576 334.800 C 152.213 334.800,153.664 334.980,153.800 335.200 M246.691 367.500 C 246.532 368.167,246.509 368.167,246.219 367.500 C 246.052 367.115,246.052 366.485,246.219 366.100 C 246.603 365.219,246.974 366.319,246.691 367.500 M246.779 372.300 C 246.759 374.144,246.740 374.173,246.130 373.300 C 245.686 372.663,245.101 372.400,244.128 372.400 C 243.313 372.400,242.854 372.237,243.000 372.000 C 243.136 371.780,243.755 371.600,244.375 371.600 C 244.995 371.600,245.726 371.330,246.000 371.000 C 246.737 370.112,246.802 370.221,246.779 372.300 " stroke="none" fill="#2c2c2c" fill-rule="evenodd"></path></g></svg>