<?xml version="1.0" standalone="no"?>
<!DOCTYPE svg PUBLIC "-//W3C//DTD SVG 20010904//EN"
 "http://www.w3.org/TR/2001/REC-SVG-20010904/DTD/svg10.dtd">
<svg version="1.0" xmlns="http://www.w3.org/2000/svg"
 width="500.000000pt" height="500.000000pt" viewBox="0 0 500.000000 500.000000"
 preserveAspectRatio="xMidYMid meet">

<g transform="translate(0.000000,500.000000) scale(0.100000,-0.100000)"
fill="#000000" stroke="none">
<path d="M2336 4979 c-119 -18 -203 -77 -227 -158 -16 -53 1 -94 47 -116 44
-21 43 -42 -6 -85 -35 -30 -42 -43 -49 -90 -10 -63 -3 -89 34 -118 26 -21 26
-21 16 -97 -6 -42 -11 -106 -11 -143 0 -37 -4 -83 -9 -102 -6 -19 -14 -83 -20
-142 -12 -122 -44 -233 -104 -358 -35 -73 -55 -99 -143 -185 -154 -151 -200
-246 -198 -410 0 -49 6 -112 12 -140 6 -27 16 -86 22 -130 5 -44 19 -111 31
-150 19 -60 22 -100 25 -280 6 -392 -13 -1153 -35 -1345 -10 -96 -22 -263 -25
-371 l-6 -195 30 -62 c39 -77 112 -144 188 -172 31 -12 104 -33 162 -46 58
-13 134 -32 170 -41 81 -20 366 -29 465 -14 116 17 312 60 378 83 82 28 161
73 191 108 13 16 34 50 47 77 23 47 24 54 21 273 -1 150 -9 281 -23 393 -24
202 -36 525 -38 1107 -1 361 1 443 14 485 22 74 65 352 65 422 0 142 -47 264
-131 340 -227 205 -292 339 -339 698 -5 44 -10 98 -10 121 0 22 -7 85 -15 140
-19 125 -19 121 5 129 33 11 53 61 45 114 -7 48 -30 101 -43 101 -14 0 -52 40
-52 56 0 8 16 22 35 31 89 43 54 183 -60 237 -27 13 -84 29 -125 35 -82 12
-256 12 -334 0z m339 -94 c56 -13 105 -40 112 -61 2 -5 -109 -9 -281 -9 -276
0 -284 0 -268 18 22 25 45 37 101 52 64 17 262 18 336 0z m-12 -176 l47 2 0
-62 c0 -60 1 -63 41 -100 l41 -38 -26 -31 c-23 -27 -26 -40 -25 -98 0 -37 4
-101 8 -142 4 -41 6 -77 5 -79 -2 -2 -53 8 -113 22 -128 31 -149 32 -222 11
-87 -26 -154 -43 -157 -39 -2 2 1 54 8 115 13 130 6 196 -21 213 -28 17 -23
44 10 61 33 18 51 60 51 123 l0 44 33 -6 c17 -3 52 -1 77 4 25 6 79 7 120 4
41 -3 96 -5 123 -4z m-15 -640 c125 -33 126 -34 133 -109 3 -36 18 -111 33
-168 16 -56 27 -104 25 -106 -2 -2 -151 -6 -331 -9 -250 -4 -328 -3 -328 6 0
7 14 65 30 131 17 65 30 137 30 161 0 23 6 47 13 53 11 9 46 20 157 50 60 17
158 13 238 -9z m242 -519 c51 -110 68 -135 139 -201 104 -99 156 -163 192
-237 28 -58 30 -70 26 -145 -2 -45 -14 -118 -26 -162 -13 -44 -27 -123 -32
-175 -5 -52 -13 -111 -17 -130 l-8 -35 -85 0 c-73 0 -90 4 -134 29 -55 30
-197 88 -260 105 -71 19 -196 24 -275 11 -93 -15 -158 -38 -280 -98 -90 -45
-99 -47 -180 -47 l-85 0 -18 115 c-9 63 -25 144 -33 180 -53 215 -53 265 -1
370 24 48 60 92 143 175 103 102 164 187 164 228 0 36 16 37 394 35 316 -3
370 -5 376 -18z m-231 -1055 c16 -2 89 -34 162 -71 134 -66 134 -66 237 -71
l102 -6 2 -353 c0 -195 1 -360 2 -366 1 -7 -10 -14 -24 -16 -38 -3 -173 -44
-190 -57 -8 -6 -46 -30 -85 -52 -246 -143 -421 -149 -655 -21 -158 86 -177 95
-230 106 -30 7 -66 13 -80 14 l-25 3 -3 373 -2 374 50 -7 c81 -11 152 10 313
92 96 49 119 55 237 62 102 7 128 6 189 -4z m-710 -1006 c25 -5 74 -29 110
-53 113 -74 150 -91 305 -137 145 -42 211 -37 418 37 87 30 140 58 203 104 56
42 102 60 151 60 l34 0 1 -112 c0 -62 0 -155 -1 -207 -1 -83 13 -207 40 -341
5 -25 12 -140 15 -256 6 -178 4 -216 -8 -240 -45 -87 -147 -132 -427 -190
-166 -34 -357 -34 -535 2 -220 43 -295 66 -358 107 -69 46 -87 90 -87 209 0
123 16 324 37 463 11 73 16 164 15 270 -1 88 1 190 4 228 7 74 6 74 83 56z"/>
<path d="M3070 2918 c-91 -8 -122 -19 -106 -35 14 -14 211 -9 229 5 19 16 12
43 -12 41 -9 -1 -59 -6 -111 -11z"/>
<path d="M3055 2821 c-100 -13 -92 -39 12 -40 60 -1 106 14 101 32 -5 14 -44
17 -113 8z"/>
<path d="M3013 2740 c-38 -15 -26 -28 32 -35 56 -7 125 0 125 13 0 30 -103 44
-157 22z"/>
<path d="M3023 2633 c-32 -12 -7 -23 52 -23 51 0 65 3 65 15 0 12 -12 15 -52
14 -29 0 -59 -3 -65 -6z"/>
<path d="M3042 2559 c-39 -11 -38 -29 2 -42 64 -21 131 20 70 43 -29 11 -28
11 -72 -1z"/>
<path d="M2985 1265 c-5 -2 -27 -6 -49 -10 -67 -11 -26 -30 65 -29 86 1 99 5
79 29 -11 13 -67 19 -95 10z"/>
<path d="M2967 1171 c-21 -5 -43 -13 -50 -20 -8 -8 9 -11 70 -11 95 0 145 8
140 24 -4 13 -106 17 -160 7z"/>
<path d="M2953 1099 c-65 -19 -34 -39 61 -39 64 0 105 17 92 38 -9 14 -107 14
-153 1z"/>
<path d="M2937 1013 c-14 -14 -6 -22 28 -29 52 -9 145 4 145 22 0 11 -18 14
-83 14 -46 0 -87 -3 -90 -7z"/>
<path d="M2993 928 c-63 -11 -68 -24 -13 -33 66 -11 150 9 150 36 0 11 -68 10
-137 -3z"/>
<path d="M3005 843 c-16 -2 -41 -6 -54 -9 -46 -10 0 -24 81 -24 85 0 108 5
108 26 0 14 -57 17 -135 7z"/>
<path d="M3035 773 c-11 -2 -30 -6 -42 -9 -13 -2 -23 -9 -23 -14 0 -16 146
-12 159 3 6 8 8 17 4 20 -7 7 -65 7 -98 0z"/>
<path d="M3085 704 c-102 -20 -125 -27 -136 -40 -11 -13 1 -14 91 -12 86 3
105 6 114 21 18 28 -12 42 -69 31z"/>
<path d="M3029 600 c-95 -16 -116 -50 -31 -50 69 0 124 17 120 38 -4 20 -26
23 -89 12z"/>
<path d="M3000 523 c-63 -4 -160 -24 -166 -34 -8 -14 47 -24 136 -24 96 0 150
17 150 46 0 20 -5 20 -120 12z"/>
</g>
</svg>
