<?xml version="1.0" standalone="no"?>
<!DOCTYPE svg PUBLIC "-//W3C//DTD SVG 20010904//EN"
 "http://www.w3.org/TR/2001/REC-SVG-20010904/DTD/svg10.dtd">
<svg version="1.0" xmlns="http://www.w3.org/2000/svg"
 width="500.000000pt" height="500.000000pt" viewBox="0 0 500.000000 500.000000"
 preserveAspectRatio="xMidYMid meet">

<g transform="translate(0.000000,500.000000) scale(0.100000,-0.100000)"
fill="#000000" stroke="none">
<path d="M2326 4699 c-62 -10 -155 -57 -179 -90 -28 -39 -33 -103 -11 -136 10
-16 17 -39 15 -52 -1 -13 3 -34 9 -47 10 -18 10 -30 -3 -61 -32 -80 -91 -354
-102 -469 -3 -27 -10 -103 -15 -169 -13 -135 -43 -323 -61 -373 -6 -19 -52
-82 -101 -140 -57 -69 -104 -137 -130 -191 l-41 -84 -8 -251 c-11 -336 -29
-1389 -29 -1651 0 -196 2 -214 24 -266 32 -78 57 -111 126 -163 124 -93 221
-108 695 -108 426 0 510 12 630 87 64 40 111 94 144 165 l25 55 -3 550 c-2
303 -7 771 -11 1040 -6 425 -10 497 -25 545 -30 94 -70 161 -164 274 -116 138
-121 155 -161 516 -31 282 -73 514 -110 613 -20 53 -20 58 -5 81 10 15 14 33
10 45 -4 12 0 30 9 43 31 44 13 132 -35 174 -33 28 -92 51 -163 64 -69 12
-258 11 -330 -1z m334 -95 c38 -8 74 -22 81 -30 17 -20 5 -28 -22 -14 -14 8
-39 10 -68 5 -25 -3 -59 -5 -76 -4 -26 2 -99 2 -167 -1 -13 0 -42 2 -65 6 -24
3 -56 1 -73 -4 -30 -11 -42 -1 -18 15 63 40 286 55 408 27z m-247 -136 c44 2
123 2 175 0 20 0 53 2 72 6 34 7 35 6 53 -36 9 -24 17 -58 17 -76 0 -18 11
-80 25 -138 14 -58 25 -117 25 -130 l0 -24 -37 24 c-21 14 -72 34 -113 45
-132 37 -247 24 -372 -41 -32 -16 -58 -28 -58 -25 0 2 7 26 14 53 8 27 24 99
36 159 11 61 26 130 33 153 l12 44 40 -8 c22 -4 57 -7 78 -6z m177 -419 c24
-5 67 -21 94 -35 27 -14 66 -28 85 -32 39 -9 37 -3 57 -146 6 -43 5 -49 -9
-43 -9 3 -40 0 -69 -7 -155 -40 -308 -43 -463 -11 -38 8 -82 15 -97 15 -32 0
-32 0 -14 110 l12 75 36 6 c20 3 49 14 65 24 72 48 204 67 303 44z m-345 -365
c74 -19 286 -37 340 -29 49 8 134 23 198 37 26 6 50 8 53 5 8 -7 34 -247 34
-310 0 -77 18 -110 145 -263 58 -69 115 -144 126 -166 24 -48 49 -169 49 -242
l0 -52 -217 -12 c-279 -16 -678 -16 -957 0 l-219 12 7 99 c8 115 39 209 85
259 76 84 158 184 184 223 30 46 40 93 57 260 19 186 21 195 39 195 9 0 44 -7
76 -16z m255 -1129 c316 0 601 3 633 8 56 7 57 7 57 -17 0 -13 -8 -27 -17 -31
-26 -11 -998 -19 -1196 -10 -174 7 -188 12 -173 50 4 12 16 14 63 8 32 -5 317
-8 633 -8z m692 -587 c1 -236 2 -436 2 -445 1 -25 -29 -29 -295 -44 -319 -16
-895 -15 -1009 4 l-85 13 -3 439 c-1 242 0 445 2 450 3 8 221 11 695 10 l691
0 2 -427z m-1282 -585 c8 -3 135 -9 282 -13 293 -10 821 2 932 20 77 13 92 7
82 -34 -6 -24 -10 -26 -69 -26 -34 0 -100 -8 -147 -16 -125 -24 -837 -23 -994
0 -60 9 -131 16 -158 16 l-48 0 0 35 0 36 53 -6 c28 -4 59 -9 67 -12z m145
-165 c222 -25 650 -31 770 -11 60 10 278 33 355 37 l25 1 5 -220 c3 -121 3
-234 2 -251 -8 -67 -125 -180 -210 -204 -126 -34 -848 -39 -991 -6 -75 17
-159 77 -206 146 l-30 45 3 239 c2 132 6 244 9 249 3 4 21 6 42 3 20 -3 122
-16 226 -28z"/>
<path d="M2826 3111 c-16 -3 -31 -12 -34 -18 -3 -10 17 -13 77 -13 80 0 100 9
62 30 -21 11 -59 11 -105 1z"/>
<path d="M2840 3041 l-25 -8 28 -8 c24 -6 124 2 115 9 -9 9 -96 13 -118 7z"/>
<path d="M2837 2983 c-15 -14 -5 -22 36 -28 53 -7 139 6 145 23 3 9 -19 12
-85 12 -50 0 -93 -3 -96 -7z"/>
<path d="M2850 2911 c-13 -9 -12 -11 1 -16 25 -10 179 -1 179 10 0 13 -160 18
-180 6z"/>
<path d="M2958 2843 c-17 -3 -28 -11 -28 -20 0 -13 12 -15 69 -11 73 4 95 13
71 28 -15 10 -61 11 -112 3z"/>
<path d="M2976 2783 c-4 -4 -19 -8 -34 -9 -48 -3 -52 -4 -52 -14 0 -16 185
-13 199 3 6 8 8 17 4 20 -9 9 -108 9 -117 0z"/>
<path d="M3085 1159 c-27 -5 -60 -7 -73 -4 -29 7 -104 -13 -97 -25 8 -13 161
-12 208 1 21 6 37 15 34 22 -5 15 -14 16 -72 6z"/>
<path d="M3002 1091 c-51 -9 -42 -26 16 -29 55 -3 122 13 122 29 0 10 -85 10
-138 0z"/>
<path d="M2971 1019 c-33 -13 -21 -21 40 -26 54 -4 123 13 114 28 -8 12 -123
11 -154 -2z"/>
<path d="M3028 953 c-54 -8 -28 -24 35 -21 34 2 62 8 62 13 0 11 -53 15 -97 8z"/>
<path d="M2990 881 c0 -15 47 -22 74 -11 39 14 32 20 -24 20 -27 0 -50 -4 -50
-9z"/>
<path d="M3023 818 c-33 -16 -28 -28 11 -28 41 0 86 15 86 30 0 13 -69 12 -97
-2z"/>
<path d="M3008 743 c-37 -9 -18 -26 23 -20 54 7 76 27 29 26 -19 -1 -43 -3
-52 -6z"/>
</g>
</svg>
