<?xml version="1.0" standalone="no"?>
<!DOCTYPE svg PUBLIC "-//W3C//DTD SVG 20010904//EN"
 "http://www.w3.org/TR/2001/REC-SVG-20010904/DTD/svg10.dtd">
<svg version="1.0" xmlns="http://www.w3.org/2000/svg"
 width="500.000000pt" height="500.000000pt" viewBox="0 0 500.000000 500.000000"
 preserveAspectRatio="xMidYMid meet">

<g transform="translate(0.000000,500.000000) scale(0.100000,-0.100000)"
fill="#000000" stroke="none">
<path d="M2429 4971 l-29 -29 0 -170 c0 -165 1 -170 24 -195 13 -14 36 -29 50
-33 37 -9 74 3 102 33 23 25 24 30 24 195 l0 170 -29 29 c-23 23 -38 29 -71
29 -33 0 -48 -6 -71 -29z"/>
<path d="M1913 4780 c-34 -14 -65 -69 -58 -104 7 -37 131 -253 166 -288 29
-30 82 -38 120 -18 28 16 52 68 46 104 -7 40 -131 253 -168 289 -30 28 -65 33
-106 17z"/>
<path d="M2981 4763 c-16 -16 -59 -80 -97 -143 -58 -98 -68 -122 -68 -163 -1
-41 3 -52 27 -73 40 -35 100 -33 136 4 35 35 159 251 166 288 7 36 -25 91 -61
104 -42 17 -72 11 -103 -17z"/>
<path d="M1678 4070 c-44 -8 -82 -32 -104 -65 -9 -13 -34 -91 -56 -172 l-40
-148 16 -48 17 -48 -52 -112 c-29 -62 -100 -233 -159 -380 l-107 -269 -54 -22
c-150 -61 -312 -223 -389 -389 -35 -74 -53 -135 -176 -602 -53 -198 -148 -553
-211 -789 -103 -385 -115 -436 -111 -490 9 -103 71 -197 166 -249 89 -48 996
-287 1091 -287 114 0 234 69 281 161 18 34 146 494 220 789 17 69 80 305 140
525 135 494 131 479 132 600 0 182 -52 335 -166 490 -14 18 -13 34 4 145 29
184 67 492 76 597 6 91 7 93 48 135 38 39 46 55 75 163 18 65 35 133 38 151
11 67 -36 147 -104 177 -34 15 -452 129 -513 140 -14 2 -41 1 -62 -3z m276
-261 c105 -29 192 -53 193 -54 2 -1 -8 -37 -20 -81 -19 -65 -27 -80 -45 -82
-40 -6 -69 -54 -76 -129 -3 -37 -9 -94 -12 -125 l-6 -58 -194 0 c-107 0 -194
4 -194 8 0 5 32 76 70 158 40 85 70 162 70 180 0 17 -10 44 -21 59 l-22 27 19
74 c12 48 23 74 32 74 8 0 100 -23 206 -51z m11 -751 c-2 -13 -14 -93 -25
-178 -30 -225 -24 -210 -72 -210 -55 0 -98 -42 -98 -98 0 -54 33 -84 114 -106
35 -10 73 -27 84 -39 54 -59 112 -232 112 -334 0 -47 -2 -54 -17 -49 -29 9
-857 231 -993 267 -69 18 -127 34 -129 35 -8 7 66 109 112 156 63 65 159 126
212 134 28 4 52 15 68 32 14 15 57 109 97 212 40 102 74 188 77 193 2 4 108 7
234 7 l229 0 -5 -22z m-940 -938 c83 -23 344 -93 580 -156 237 -64 431 -117
433 -119 2 -1 -31 -128 -72 -281 -41 -154 -116 -431 -165 -618 -50 -186 -92
-341 -95 -344 -3 -3 -178 41 -388 97 -677 180 -773 208 -772 222 1 12 78 302
303 1142 14 53 26 97 26 97 0 0 68 -18 150 -40z m-65 -1529 c228 -60 477 -127
553 -147 l139 -37 -7 -33 c-16 -90 -36 -135 -68 -154 -57 -35 -44 -38 -725
146 -173 46 -321 88 -330 93 -10 5 -28 21 -42 36 -30 32 -32 82 -6 167 16 55
18 56 44 48 15 -5 214 -59 442 -119z"/>
<path d="M1542 2735 c-37 -16 -67 -73 -56 -108 18 -61 87 -91 142 -63 59 31
70 96 25 145 -35 36 -68 44 -111 26z"/>
<path d="M1228 1740 c-193 -33 -329 -223 -298 -417 31 -195 195 -325 391 -311
255 19 414 303 297 531 -71 140 -236 223 -390 197z m157 -220 c109 -67 95
-238 -24 -300 -32 -17 -114 -14 -150 4 -74 39 -114 153 -78 222 48 93 165 127
252 74z"/>
<path d="M3255 4073 c-66 -14 -476 -126 -508 -140 -68 -30 -115 -110 -104
-177 3 -18 20 -86 38 -151 29 -109 37 -124 76 -164 34 -36 43 -51 43 -80 0
-66 74 -646 95 -751 4 -19 -3 -37 -29 -70 -73 -94 -130 -244 -144 -379 -15
-133 -1 -213 106 -607 56 -203 122 -450 147 -549 103 -398 217 -810 235 -845
47 -91 167 -160 281 -160 95 0 1002 239 1091 287 93 51 157 147 166 249 4 54
-8 105 -111 490 -63 236 -158 591 -211 789 -119 450 -141 527 -171 592 -77
169 -243 338 -393 399 l-56 22 -106 269 c-59 147 -131 318 -159 380 l-52 112
17 48 16 48 -41 150 c-22 83 -49 161 -60 175 -33 45 -109 74 -166 63z m29
-288 c17 -74 17 -75 -3 -101 -34 -43 -26 -81 49 -239 39 -81 70 -151 70 -156
0 -5 -87 -9 -194 -9 l-194 0 -6 58 c-3 31 -9 88 -12 125 -7 75 -36 123 -76
129 -18 2 -26 17 -45 82 -12 44 -22 80 -20 81 7 6 376 103 393 104 17 1 23
-10 38 -74z m285 -902 c42 -105 86 -203 99 -216 15 -16 40 -27 67 -31 82 -13
218 -121 293 -233 19 -29 33 -55 31 -57 -2 -1 -60 -17 -129 -35 -136 -36 -964
-258 -992 -267 -41 -13 -9 195 47 308 39 77 59 94 131 114 81 22 114 52 114
106 0 56 -43 98 -98 98 -48 0 -42 -15 -72 210 -11 85 -23 165 -26 178 l-4 22
232 -2 232 -3 75 -192z m620 -961 c112 -413 260 -976 263 -996 3 -21 32 -13
-714 -212 -241 -65 -440 -115 -443 -112 -3 3 -46 158 -96 344 -49 187 -124
464 -165 618 -41 153 -74 280 -72 281 2 2 233 65 513 140 281 76 539 146 575
155 36 10 67 19 70 19 3 1 34 -106 69 -237z m342 -1278 c25 -87 19 -123 -27
-163 -19 -17 -37 -31 -39 -31 -2 0 -145 -38 -317 -84 -681 -184 -668 -181
-725 -146 -32 19 -52 64 -68 154 l-7 33 214 57 c533 143 943 252 946 250 1 -1
12 -32 23 -70z"/>
<path d="M3393 2743 c-32 -6 -73 -59 -73 -94 0 -41 15 -66 52 -85 55 -28 124
2 142 63 11 36 -19 92 -58 108 -20 8 -37 14 -38 14 -2 -1 -13 -4 -25 -6z"/>
<path d="M3647 1740 c-106 -18 -216 -100 -265 -197 -117 -228 42 -512 297
-531 196 -14 360 116 391 311 39 245 -177 458 -423 417z m106 -201 c50 -13
103 -61 118 -106 25 -78 -12 -172 -82 -209 -39 -20 -118 -20 -155 -1 -137 71
-121 273 25 317 37 11 51 11 94 -1z"/>
</g>
</svg>
